<?xml version="1.0" standalone="no"?>
<!DOCTYPE svg PUBLIC "-//W3C//DTD SVG 20010904//EN"
 "http://www.w3.org/TR/2001/REC-SVG-20010904/DTD/svg10.dtd">
<svg version="1.0" xmlns="http://www.w3.org/2000/svg"
 width="260.000000pt" height="260.000000pt" viewBox="0 0 260.000000 260.000000"
 preserveAspectRatio="xMidYMid meet">
<metadata>
Created by potrace 1.11, written by Peter Selinger 2001-2013
</metadata>
<g transform="translate(0.000000,260.000000) scale(0.100000,-0.100000)"
fill="#000000" stroke="none">
<path d="M1145 2583 c-298 -39 -548 -162 -760 -377 -150 -151 -241 -293 -309
-484 -90 -253 -90 -591 0 -844 64 -181 157 -329 291 -469 243 -251 530 -381
879 -396 420 -18 813 163 1069 492 133 172 209 338 256 565 18 85 18 383 0
465 -49 225 -125 391 -256 560 -245 314 -627 499 -1024 494 -64 -1 -129 -4
-146 -6z m522 -275 c-2 -13 -4 -3 -4 22 0 25 2 35 4 23 2 -13 2 -33 0 -45z
m-417 -513 l0 -125 -295 0 -296 0 3 -117 3 -118 188 -3 187 -2 0 -123 0 -122
-188 0 -187 0 -3 -242 -2 -243 -170 0 -170 0 0 610 0 610 465 0 465 0 0 -125z
m1022 10 c2 -64 2 -120 0 -125 -2 -6 -111 -10 -288 -10 l-284 0 0 -110 0 -110
179 0 179 0 4 -67 c2 -38 2 -94 0 -125 l-3 -58 -114 0 c-85 0 -115 -3 -116
-12 0 -10 -2 -10 -6 0 -3 8 -26 12 -64 12 l-60 0 3 -117 3 -118 293 -3 293 -2
-3 -128 -3 -127 -275 -5 c-151 -3 -359 -4 -462 -2 l-188 3 0 609 0 610 454 0
455 0 3 -115z m-445 -667 c-3 -8 -6 -5 -6 6 -1 11 2 17 5 13 3 -3 4 -12 1 -19z
m105 -608 c-5 -44 -7 -49 -14 -22 -4 16 7 62 14 62 2 0 2 -18 0 -40z"/>
</g>
</svg>
