<?xml version="1.0" standalone="no"?>
<!DOCTYPE svg PUBLIC "-//W3C//DTD SVG 20010904//EN"
 "http://www.w3.org/TR/2001/REC-SVG-20010904/DTD/svg10.dtd">
<svg version="1.0" xmlns="http://www.w3.org/2000/svg"
 width="260.000000pt" height="260.000000pt" viewBox="0 0 260.000000 260.000000"
 preserveAspectRatio="xMidYMid meet">
<metadata>
Created by potrace 1.11, written by Peter Selinger 2001-2013
</metadata>
<g transform="translate(0.000000,260.000000) scale(0.100000,-0.100000)"
fill="#000000" stroke="none">
<path d="M1115 2576 c-419 -62 -786 -327 -969 -701 -105 -214 -131 -328 -131
-580 1 -136 5 -198 18 -255 10 -41 20 -84 22 -94 8 -35 57 -160 87 -219 150
-300 415 -534 733 -644 84 -29 86 -30 205 -52 246 -45 529 -8 760 100 359 169
612 474 710 859 27 104 35 178 35 310 0 134 -8 204 -35 309 -129 507 -536 881
-1050 965 -82 14 -299 15 -385 2z m555 -245 c0 -22 -3 -42 -7 -44 -5 -3 -8 15
-8 39 0 24 3 44 8 44 4 0 7 -18 7 -39z m-560 -391 c0 -5 -2 -10 -4 -10 -3 0
-8 5 -11 10 -3 6 -1 10 4 10 6 0 11 -4 11 -10z m717 -771 c2 -16 -1 -19 -9
-11 -5 5 -7 15 -4 21 10 15 12 14 13 -10z m-92 -479 c-3 -5 -12 -10 -18 -10
-7 0 -6 4 3 10 19 12 23 12 15 0z m-10 -30 c-3 -5 -12 -10 -18 -10 -7 0 -6 4
3 10 19 12 23 12 15 0z m216 -99 c-7 -5 -13 -21 -13 -36 0 -15 6 -32 13 -37
12 -8 12 -9 0 -6 -31 9 -30 88 1 88 10 0 10 -2 -1 -9z m-635 -280 c-8 -12 19
-33 29 -23 5 4 5 1 1 -6 -6 -11 -12 -10 -27 4 -21 19 -25 34 -8 34 5 0 8 -4 5
-9z m49 -1 c3 -5 1 -10 -4 -10 -6 0 -11 5 -11 10 0 6 2 10 4 10 3 0 8 -4 11
-10z m22 -36 c-3 -3 -12 -4 -19 -1 -8 3 -5 6 6 6 11 1 17 -2 13 -5z"/>
</g>
</svg>
